<svg xmlns="http://www.w3.org/2000/svg" version="1.0" preserveAspectRatio="xMidYMid meet" viewBox="120 240.3 1041.46 800.7">
<metadata>
Created by potrace 1.15, written by Peter Selinger 2001-2017
</metadata>
<g transform="translate(0.000000,1280.000000) scale(0.100000,-0.100000)" fill="#000000" stroke="none">
<path d="M6580 10393 c-14 -2 -124 -24 -245 -48 -490 -99 -845 -223 -1080 -380 -100 -66 -219 -190 -262 -271 -35 -65 -63 -166 -63 -225 0 -20 18 -100 40 -178 22 -78 38 -147 35 -152 -4 -5 -14 -9 -25 -9 -21 0 -110 -49 -199 -109 -164 -112 -372 -314 -551 -537 l-100 -124 0 -66 c0 -79 19 -123 69 -164 19 -17 33 -30 29 -30 -3 0 -131 32 -284 71 -254 65 -281 70 -317 59 -148 -44 -314 -406 -550 -1200 l-34 -115 -44 -2 c-780 -43 -1328 -522 -1633 -1425 -72 -211 -166 -587 -166 -659 0 -67 23 -160 48 -197 22 -32 27 -53 34 -151 10 -137 46 -323 88 -450 211 -648 772 -1122 1683 -1425 282 -94 780 -216 880 -216 77 0 650 70 707 86 93 27 329 123 454 186 662 332 1030 820 1132 1500 21 143 30 534 15 691 -34 358 -164 659 -426 982 l-88 108 28 111 c32 132 143 504 254 854 71 222 81 263 81 327 0 41 -4 85 -10 99 -12 33 -162 132 -334 222 l-128 67 58 19 c150 51 407 269 682 577 l92 104 2 169 3 170 55 20 c94 34 85 38 210 -78 197 -181 276 -233 360 -234 l45 -1 -135 -70 c-172 -89 -285 -169 -329 -234 l-33 -50 5 -100 c9 -178 121 -492 367 -1028 l68 -147 -78 -131 c-352 -586 -471 -1085 -394 -1647 122 -891 753 -1459 1904 -1712 l145 -32 270 7 c524 13 721 61 1190 290 612 299 1044 694 1285 1175 92 184 173 457 206 695 25 181 25 654 -1 800 -84 485 -350 846 -860 1166 -209 132 -563 290 -855 384 -63 20 -123 44 -133 52 -86 78 -304 533 -512 1068 -42 110 -82 206 -87 213 -6 6 -21 12 -34 12 -67 0 -1206 -392 -1652 -569 l-54 -21 37 34 c29 28 35 40 30 58 -12 41 -58 101 -128 171 -53 52 -92 79 -166 115 l-96 47 82 110 c84 112 138 202 153 257 11 37 -8 141 -44 246 l-25 74 27 -18 c60 -39 273 -204 382 -295 205 -172 360 -346 360 -404 0 -11 7 -31 16 -43 14 -20 23 -22 116 -22 l100 0 108 70 c131 86 145 100 143 149 -7 173 -299 496 -823 910 -159 126 -451 262 -855 397 -151 51 -185 57 -245 47z m-133 -605 c-201 -250 -267 -352 -267 -413 0 -49 26 -124 65 -189 19 -32 35 -60 35 -61 0 -1 -21 -10 -47 -20 l-47 -18 -25 34 c-117 153 -241 261 -385 334 -118 60 -143 63 -236 32 -41 -14 -76 -24 -78 -22 -6 6 305 158 453 220 156 66 633 254 647 255 4 0 -47 -69 -115 -152z m-767 -868 c11 -21 8 -23 -27 -14 -13 4 -20 11 -16 20 8 20 31 17 43 -6z m-364 -397 c85 -84 99 -88 349 -88 l220 0 -70 -47 c-165 -109 -570 -437 -580 -469 -10 -32 5 -77 41 -124 l33 -45 -49 20 c-108 43 -363 130 -510 175 -85 27 -156 49 -157 49 -1 1 9 34 22 75 59 178 173 310 453 521 l127 96 40 -61 c22 -33 58 -79 81 -102z m644 -14 c0 -29 -5 -41 -22 -50 -18 -10 -20 -9 -15 6 4 9 7 37 7 62 0 39 2 44 15 33 9 -7 15 -29 15 -51z m2237 -298 c64 -39 133 -209 174 -424 l22 -116 -26 -31 c-15 -17 -29 -46 -33 -65 l-6 -35 -94 0 c-90 0 -95 1 -128 31 -44 38 -128 149 -201 265 l-55 88 0 122 c0 152 6 163 101 174 129 15 212 11 246 -9z m-3388 -778 c5 -21 20 -90 32 -153 l22 -115 -42 -90 c-57 -121 -124 -235 -158 -267 -23 -21 -41 -26 -105 -32 -76 -6 -78 -5 -113 26 -40 34 -115 179 -115 221 0 35 71 250 104 315 35 69 81 120 114 125 15 2 77 5 139 6 l112 1 10 -37z m3851 -262 c13 -10 28 -33 33 -52 19 -74 15 -74 367 -24 244 35 253 35 401 25 247 -18 431 -57 603 -129 180 -75 303 -159 439 -300 183 -190 309 -442 382 -768 26 -112 27 -127 22 -313 -9 -330 -72 -540 -232 -781 -256 -384 -739 -678 -1419 -864 -129 -35 -130 -35 -342 -35 -173 0 -233 4 -321 21 -421 80 -763 238 -979 454 -233 232 -334 502 -334 890 0 275 70 501 245 789 179 297 532 689 910 1014 118 101 121 103 160 97 22 -4 51 -14 65 -24z m-4296 -771 c34 -13 68 -35 89 -59 33 -37 38 -49 51 -132 6 -31 24 -50 149 -155 344 -287 606 -591 745 -862 117 -229 142 -346 142 -675 l0 -241 -41 -120 c-85 -253 -207 -463 -362 -623 -255 -265 -560 -399 -990 -433 -128 -10 -144 -10 -284 15 -569 99 -1061 292 -1378 540 -104 82 -256 240 -322 335 -106 156 -194 369 -229 555 -25 137 -30 424 -10 563 92 628 573 1008 1456 1152 100 16 171 20 357 20 128 0 255 5 282 11 68 14 111 45 136 98 l20 43 67 -6 c37 -3 92 -15 122 -26z"/>
</g>
</svg>