<svg xmlns="http://www.w3.org/2000/svg" version="1.0" preserveAspectRatio="xMidYMid meet" viewBox="143.11 145.45 1060.5 1089.21">
<metadata>
Created by potrace 1.10, written by Peter Selinger 2001-2011
</metadata>
<g transform="translate(0.000000,1686.000000) scale(0.100000,-0.100000)" fill="#000000" stroke="none">
<path d="M6135 15400 c-367 -23 -597 -53 -1025 -131 -63 -11 -128 -24 -145 -29 -16 -5 -52 -14 -80 -20 -27 -6 -63 -15 -80 -19 -16 -5 -66 -18 -110 -30 -139 -38 -296 -86 -355 -109 -53 -21 -108 -42 -190 -73 -111 -42 -145 -57 -335 -150 -183 -90 -308 -158 -313 -171 -2 -4 -8 -8 -13 -8 -6 0 -22 -8 -37 -19 -15 -10 -61 -40 -102 -67 -204 -130 -385 -278 -590 -484 -223 -222 -326 -350 -507 -625 -36 -55 -74 -112 -84 -127 -11 -15 -19 -29 -19 -31 0 -2 -33 -64 -73 -138 -79 -146 -169 -338 -212 -449 -10 -25 -21 -54 -26 -65 -5 -11 -13 -33 -18 -50 -5 -16 -19 -55 -31 -85 -12 -30 -25 -68 -30 -85 -4 -16 -12 -41 -17 -55 -14 -34 -25 -72 -68 -230 -20 -74 -42 -157 -50 -185 -34 -124 -83 -389 -120 -640 -8 -60 -20 -141 -26 -180 -11 -71 -21 -199 -38 -465 -13 -191 -13 -1006 -1 -1234 11 -216 10 -213 102 -198 83 15 227 32 363 43 61 4 130 11 155 13 25 3 107 8 183 12 87 4 140 11 142 18 28 106 42 134 100 191 91 90 111 95 390 95 194 0 238 -3 279 -17 101 -36 196 -158 196 -251 0 -66 20 -80 130 -91 148 -15 415 -57 548 -86 229 -49 253 -60 304 -135 57 -82 65 -161 50 -480 -11 -238 -25 -357 -58 -515 -8 -38 -14 -80 -14 -92 0 -12 -4 -32 -9 -45 -5 -13 -19 -66 -31 -118 -12 -52 -29 -117 -37 -145 -32 -100 -46 -141 -59 -172 -8 -17 -14 -35 -14 -41 0 -15 -59 -161 -93 -231 -37 -72 -70 -104 -145 -138 -61 -27 -99 -29 -185 -9 -34 8 -96 21 -137 30 -41 9 -106 22 -145 30 -38 8 -144 29 -235 46 -193 36 -299 58 -355 72 -22 6 -62 14 -90 18 -72 11 -405 77 -530 105 -33 8 -96 21 -140 29 -261 52 -279 54 -290 36 -6 -10 22 -109 50 -175 7 -16 29 -70 50 -120 62 -148 117 -264 182 -385 66 -121 87 -157 114 -198 16 -24 29 -45 29 -48 0 -24 278 -397 375 -504 119 -131 325 -328 419 -403 195 -153 286 -216 421 -296 120 -70 116 -68 182 -90 116 -38 167 -46 308 -45 137 1 192 9 311 49 91 31 250 131 320 203 87 89 197 263 324 512 29 58 57 112 61 120 13 23 99 211 99 216 0 2 12 28 26 57 14 28 31 68 38 87 8 19 33 85 56 145 91 236 93 240 163 460 59 185 111 369 140 495 4 14 13 52 22 85 34 138 78 344 110 525 9 47 21 105 26 130 6 25 15 77 19 115 5 39 13 97 18 130 19 114 51 385 82 695 6 58 15 184 20 280 6 96 15 231 20 300 14 192 12 315 -7 384 -41 150 -156 252 -310 276 -214 33 -534 41 -748 20 -163 -16 -478 -67 -548 -89 -17 -6 -99 -31 -182 -57 -144 -45 -171 -55 -260 -94 -151 -67 -232 -105 -246 -117 -8 -7 -20 -13 -25 -13 -11 0 -189 -112 -314 -197 -50 -35 -102 -66 -116 -69 -89 -23 -194 92 -166 183 17 54 201 303 312 423 18 19 72 77 119 129 180 197 487 468 751 663 80 60 150 111 155 116 19 14 189 127 207 137 9 6 59 35 110 66 150 91 193 115 379 207 180 89 199 98 356 163 186 77 649 219 713 219 10 0 40 6 66 14 83 23 182 44 359 76 94 16 206 36 250 44 44 9 103 18 130 21 28 4 66 10 85 15 54 13 514 81 675 100 39 4 102 13 140 19 114 19 240 39 395 61 234 34 424 65 515 85 33 7 98 21 145 30 239 49 323 70 535 137 600 188 977 487 1144 909 80 200 81 405 5 596 -78 195 -239 339 -599 533 -44 24 -93 51 -110 60 -16 9 -77 38 -135 64 -58 26 -123 56 -145 66 -35 17 -129 53 -250 97 -22 8 -55 21 -73 29 -18 8 -41 14 -50 14 -10 0 -22 4 -28 9 -5 6 -27 14 -49 20 -22 5 -98 26 -170 46 -172 49 -232 65 -280 75 -171 35 -257 52 -365 69 -69 12 -154 26 -190 32 -36 6 -96 15 -135 19 -38 4 -115 12 -170 18 -55 7 -149 17 -210 23 -130 13 -1153 20 -1330 9z m1063 -515 c77 -16 160 -39 197 -55 11 -5 45 -19 75 -32 168 -69 354 -218 475 -383 73 -100 101 -151 164 -310 25 -62 41 -134 57 -245 15 -107 16 -141 6 -235 -12 -116 -44 -257 -68 -303 -8 -15 -14 -32 -14 -38 0 -22 -108 -226 -130 -244 -3 -3 -13 -17 -23 -33 -30 -46 -149 -168 -207 -210 -30 -22 -57 -43 -60 -47 -17 -22 -165 -99 -275 -143 -87 -35 -304 -77 -398 -77 -55 0 -233 26 -312 46 -121 30 -276 105 -389 189 -207 153 -364 374 -440 620 -44 142 -58 373 -31 518 18 101 47 213 63 243 5 10 18 37 27 59 10 22 22 47 26 55 40 76 56 101 96 154 184 244 439 406 733 467 111 23 324 24 428 4z"/>
<path d="M11041 13656 c-8 -9 -8 -31 0 -77 6 -35 13 -158 16 -273 5 -221 -4 -320 -47 -501 -59 -248 -200 -529 -380 -757 -109 -138 -323 -346 -489 -474 -62 -48 -76 -59 -216 -160 -102 -73 -449 -284 -552 -335 -65 -32 -136 -101 -171 -166 l-31 -59 1 -1039 c1 -737 -2 -1071 -11 -1146 -6 -58 -16 -168 -21 -245 -12 -173 -35 -415 -50 -514 -18 -127 -41 -263 -51 -312 -6 -26 -14 -71 -19 -100 -29 -193 -135 -597 -212 -808 -93 -257 -218 -534 -313 -694 -25 -42 -45 -79 -45 -82 0 -3 -9 -17 -19 -32 -10 -15 -50 -75 -89 -134 -39 -59 -75 -113 -81 -120 -7 -7 -31 -38 -54 -69 -126 -168 -370 -431 -439 -475 -54 -34 -96 -31 -140 9 -61 56 -61 57 24 362 12 43 20 85 38 205 6 41 15 100 20 130 5 30 15 159 21 286 11 238 1 588 -22 747 -29 202 -41 267 -89 457 -51 203 -156 464 -211 522 -30 32 -42 38 -77 38 -56 0 -90 -37 -121 -131 -22 -66 -35 -99 -62 -164 -5 -11 -20 -51 -35 -90 -27 -73 -69 -170 -85 -195 -5 -8 -16 -33 -26 -55 -31 -75 -176 -350 -250 -473 -40 -68 -73 -125 -73 -127 0 -3 -13 -24 -29 -47 -16 -24 -56 -83 -88 -133 -183 -277 -337 -478 -546 -713 -158 -178 -373 -388 -468 -458 -18 -13 -35 -27 -38 -31 -9 -12 -159 -123 -221 -165 -135 -89 -343 -199 -406 -214 -16 -4 -33 -10 -39 -14 -5 -4 -27 -10 -47 -14 -20 -4 -47 -15 -60 -26 -31 -25 -17 -38 64 -57 34 -8 90 -21 123 -30 194 -49 539 -106 865 -142 243 -27 304 -31 556 -42 239 -10 874 -6 1005 6 260 24 601 68 784 101 219 39 264 47 310 60 28 7 115 29 195 49 80 20 159 40 175 45 17 6 62 19 100 31 130 40 366 124 430 154 28 12 95 42 150 65 214 91 500 250 708 395 326 228 675 576 910 910 127 179 310 503 383 677 14 34 35 81 45 103 37 81 106 263 143 380 21 66 43 129 47 140 10 23 47 162 84 315 14 58 30 123 36 144 6 21 14 60 19 85 32 176 42 234 64 381 33 220 72 558 81 695 2 44 10 224 16 399 12 330 2 854 -22 1101 -6 61 -15 155 -19 210 -4 55 -14 138 -20 185 -28 196 -62 420 -76 495 -9 44 -20 106 -25 138 -5 32 -13 67 -19 77 -5 10 -10 27 -10 38 0 11 -6 42 -14 68 -8 27 -25 90 -37 139 -32 132 -134 454 -174 550 -101 241 -157 367 -207 463 -34 65 -68 131 -76 147 -9 17 -33 56 -54 87 -21 31 -38 59 -38 62 0 14 -161 244 -174 249 -8 3 -19 0 -25 -7z"/>
<path d="M2685 9413 c-47 -5 -87 -38 -83 -68 3 -19 13 -20 213 -29 329 -14 329 -14 333 7 5 26 -17 75 -37 81 -24 7 -379 15 -426 9z"/>
</g>
</svg>